<mxfile host="app.diagrams.net" agent="Mozilla/5.0 (Windows NT 10.0; Win64; x64) AppleWebKit/537.36 (KHTML, like Gecko) Chrome/130.0.0.0 YaBrowser/24.12.0.0 Safari/537.36" version="25.0.3">
  <diagram name="Страница — 1" id="Rz8E87DmrrWH4eAGQpJq">
    <mxGraphModel dx="1290" dy="567" grid="1" gridSize="10" guides="1" tooltips="1" connect="1" arrows="1" fold="1" page="1" pageScale="1" pageWidth="827" pageHeight="1169" math="0" shadow="0">
      <root>
        <mxCell id="0" />
        <mxCell id="1" parent="0" />
        <mxCell id="noPYV2ATX_tMjAQWTUhm-2" style="edgeStyle=orthogonalEdgeStyle;rounded=0;orthogonalLoop=1;jettySize=auto;html=1;" parent="1" source="noPYV2ATX_tMjAQWTUhm-3" target="noPYV2ATX_tMjAQWTUhm-5" edge="1">
          <mxGeometry relative="1" as="geometry" />
        </mxCell>
        <mxCell id="noPYV2ATX_tMjAQWTUhm-3" value="Начало" style="ellipse;whiteSpace=wrap;html=1;" parent="1" vertex="1">
          <mxGeometry x="100" y="60" width="140" height="50" as="geometry" />
        </mxCell>
        <mxCell id="noPYV2ATX_tMjAQWTUhm-4" style="edgeStyle=orthogonalEdgeStyle;rounded=0;orthogonalLoop=1;jettySize=auto;html=1;" parent="1" source="noPYV2ATX_tMjAQWTUhm-5" target="noPYV2ATX_tMjAQWTUhm-6" edge="1">
          <mxGeometry relative="1" as="geometry" />
        </mxCell>
        <mxCell id="noPYV2ATX_tMjAQWTUhm-5" value="Ввод n" style="shape=parallelogram;perimeter=parallelogramPerimeter;whiteSpace=wrap;html=1;fixedSize=1;" parent="1" vertex="1">
          <mxGeometry x="95" y="130" width="150" height="50" as="geometry" />
        </mxCell>
        <mxCell id="noPYV2ATX_tMjAQWTUhm-9" style="edgeStyle=orthogonalEdgeStyle;rounded=0;orthogonalLoop=1;jettySize=auto;html=1;" parent="1" source="noPYV2ATX_tMjAQWTUhm-6" target="noPYV2ATX_tMjAQWTUhm-8" edge="1">
          <mxGeometry relative="1" as="geometry" />
        </mxCell>
        <mxCell id="noPYV2ATX_tMjAQWTUhm-6" value="d := 0;&lt;div&gt;i := 1&lt;/div&gt;" style="rounded=0;whiteSpace=wrap;html=1;align=center;" parent="1" vertex="1">
          <mxGeometry x="105" y="200" width="130" height="50" as="geometry" />
        </mxCell>
        <mxCell id="noPYV2ATX_tMjAQWTUhm-7" value="Конец" style="ellipse;whiteSpace=wrap;html=1;" parent="1" vertex="1">
          <mxGeometry x="100" y="720" width="140" height="50" as="geometry" />
        </mxCell>
        <mxCell id="noPYV2ATX_tMjAQWTUhm-11" style="edgeStyle=orthogonalEdgeStyle;rounded=0;orthogonalLoop=1;jettySize=auto;html=1;" parent="1" source="noPYV2ATX_tMjAQWTUhm-8" target="noPYV2ATX_tMjAQWTUhm-10" edge="1">
          <mxGeometry relative="1" as="geometry" />
        </mxCell>
        <mxCell id="noPYV2ATX_tMjAQWTUhm-8" value="Цикл 1&lt;div&gt;i &amp;gt; n&lt;/div&gt;" style="shape=loopLimit;whiteSpace=wrap;html=1;" parent="1" vertex="1">
          <mxGeometry x="105" y="270" width="130" height="50" as="geometry" />
        </mxCell>
        <mxCell id="noPYV2ATX_tMjAQWTUhm-13" style="edgeStyle=orthogonalEdgeStyle;rounded=0;orthogonalLoop=1;jettySize=auto;html=1;" parent="1" source="noPYV2ATX_tMjAQWTUhm-10" target="noPYV2ATX_tMjAQWTUhm-12" edge="1">
          <mxGeometry relative="1" as="geometry" />
        </mxCell>
        <mxCell id="noPYV2ATX_tMjAQWTUhm-18" style="edgeStyle=orthogonalEdgeStyle;rounded=0;orthogonalLoop=1;jettySize=auto;html=1;" parent="1" source="noPYV2ATX_tMjAQWTUhm-10" edge="1">
          <mxGeometry relative="1" as="geometry">
            <mxPoint x="170" y="490" as="targetPoint" />
            <Array as="points">
              <mxPoint x="250" y="370" />
              <mxPoint x="250" y="490" />
            </Array>
          </mxGeometry>
        </mxCell>
        <mxCell id="noPYV2ATX_tMjAQWTUhm-10" value="n mod i = 0" style="rhombus;whiteSpace=wrap;html=1;" parent="1" vertex="1">
          <mxGeometry x="103.75" y="340" width="132.5" height="60" as="geometry" />
        </mxCell>
        <mxCell id="noPYV2ATX_tMjAQWTUhm-16" style="edgeStyle=orthogonalEdgeStyle;rounded=0;orthogonalLoop=1;jettySize=auto;html=1;" parent="1" source="noPYV2ATX_tMjAQWTUhm-12" target="noPYV2ATX_tMjAQWTUhm-15" edge="1">
          <mxGeometry relative="1" as="geometry" />
        </mxCell>
        <mxCell id="noPYV2ATX_tMjAQWTUhm-12" value="d += 1" style="rounded=0;whiteSpace=wrap;html=1;align=center;" parent="1" vertex="1">
          <mxGeometry x="105" y="420" width="130" height="50" as="geometry" />
        </mxCell>
        <mxCell id="noPYV2ATX_tMjAQWTUhm-20" style="edgeStyle=orthogonalEdgeStyle;rounded=0;orthogonalLoop=1;jettySize=auto;html=1;" parent="1" source="noPYV2ATX_tMjAQWTUhm-15" target="noPYV2ATX_tMjAQWTUhm-19" edge="1">
          <mxGeometry relative="1" as="geometry" />
        </mxCell>
        <mxCell id="noPYV2ATX_tMjAQWTUhm-15" value="i += 1" style="rounded=0;whiteSpace=wrap;html=1;align=center;" parent="1" vertex="1">
          <mxGeometry x="105" y="500" width="130" height="50" as="geometry" />
        </mxCell>
        <mxCell id="noPYV2ATX_tMjAQWTUhm-22" style="edgeStyle=orthogonalEdgeStyle;rounded=0;orthogonalLoop=1;jettySize=auto;html=1;" parent="1" source="noPYV2ATX_tMjAQWTUhm-19" target="noPYV2ATX_tMjAQWTUhm-21" edge="1">
          <mxGeometry relative="1" as="geometry" />
        </mxCell>
        <mxCell id="noPYV2ATX_tMjAQWTUhm-19" value="Цикл 1" style="shape=loopLimit;whiteSpace=wrap;html=1;direction=west;" parent="1" vertex="1">
          <mxGeometry x="105" y="580" width="130" height="50" as="geometry" />
        </mxCell>
        <mxCell id="noPYV2ATX_tMjAQWTUhm-24" style="edgeStyle=orthogonalEdgeStyle;rounded=0;orthogonalLoop=1;jettySize=auto;html=1;" parent="1" source="noPYV2ATX_tMjAQWTUhm-21" target="noPYV2ATX_tMjAQWTUhm-7" edge="1">
          <mxGeometry relative="1" as="geometry" />
        </mxCell>
        <mxCell id="noPYV2ATX_tMjAQWTUhm-21" value="Вывод d" style="shape=parallelogram;perimeter=parallelogramPerimeter;whiteSpace=wrap;html=1;fixedSize=1;" parent="1" vertex="1">
          <mxGeometry x="95" y="650" width="150" height="50" as="geometry" />
        </mxCell>
        <mxCell id="noPYV2ATX_tMjAQWTUhm-26" value="да" style="text;html=1;align=center;verticalAlign=middle;whiteSpace=wrap;rounded=0;" parent="1" vertex="1">
          <mxGeometry x="150" y="400" width="20" height="10" as="geometry" />
        </mxCell>
        <mxCell id="noPYV2ATX_tMjAQWTUhm-27" value="нет" style="text;html=1;align=center;verticalAlign=middle;whiteSpace=wrap;rounded=0;" parent="1" vertex="1">
          <mxGeometry x="222" y="354" width="20" height="10" as="geometry" />
        </mxCell>
        <mxCell id="noPYV2ATX_tMjAQWTUhm-28" value="" style="shape=partialRectangle;whiteSpace=wrap;html=1;bottom=1;right=1;left=1;top=0;fillColor=none;routingCenterX=-0.5;rotation=90;" parent="1" vertex="1">
          <mxGeometry x="280" y="150" width="30" height="10" as="geometry" />
        </mxCell>
        <mxCell id="noPYV2ATX_tMjAQWTUhm-29" value="n - заданное число" style="text;html=1;align=left;verticalAlign=middle;whiteSpace=wrap;rounded=0;" parent="1" vertex="1">
          <mxGeometry x="301" y="140" width="140" height="30" as="geometry" />
        </mxCell>
        <mxCell id="noPYV2ATX_tMjAQWTUhm-30" value="" style="endArrow=none;dashed=1;html=1;rounded=0;entryX=0.5;entryY=1;entryDx=0;entryDy=0;" parent="1" target="noPYV2ATX_tMjAQWTUhm-28" edge="1">
          <mxGeometry width="50" height="50" relative="1" as="geometry">
            <mxPoint x="235" y="155" as="sourcePoint" />
            <mxPoint x="550" y="360" as="targetPoint" />
          </mxGeometry>
        </mxCell>
        <mxCell id="noPYV2ATX_tMjAQWTUhm-35" value="" style="shape=partialRectangle;whiteSpace=wrap;html=1;bottom=1;right=1;left=1;top=0;fillColor=none;routingCenterX=-0.5;rotation=90;" parent="1" vertex="1">
          <mxGeometry x="269.07" y="220.94" width="54.37" height="10" as="geometry" />
        </mxCell>
        <mxCell id="noPYV2ATX_tMjAQWTUhm-36" value="d - переменная для подсчета количества делителей&lt;br&gt;&lt;div&gt;i - переменная для перебора значений от 1 до n&lt;/div&gt;" style="text;html=1;align=left;verticalAlign=middle;whiteSpace=wrap;rounded=0;" parent="1" vertex="1">
          <mxGeometry x="302.25" y="210" width="187.75" height="30" as="geometry" />
        </mxCell>
        <mxCell id="noPYV2ATX_tMjAQWTUhm-37" value="" style="endArrow=none;dashed=1;html=1;rounded=0;entryX=0.5;entryY=1;entryDx=0;entryDy=0;" parent="1" target="noPYV2ATX_tMjAQWTUhm-35" edge="1">
          <mxGeometry width="50" height="50" relative="1" as="geometry">
            <mxPoint x="236.25" y="225" as="sourcePoint" />
            <mxPoint x="551.25" y="430" as="targetPoint" />
          </mxGeometry>
        </mxCell>
        <mxCell id="noPYV2ATX_tMjAQWTUhm-38" value="" style="shape=partialRectangle;whiteSpace=wrap;html=1;bottom=1;right=1;left=1;top=0;fillColor=none;routingCenterX=-0.5;rotation=90;" parent="1" vertex="1">
          <mxGeometry x="280" y="290" width="30" height="10" as="geometry" />
        </mxCell>
        <mxCell id="noPYV2ATX_tMjAQWTUhm-39" value="Цикл выполняется, пока i меньше или равно n" style="text;html=1;align=left;verticalAlign=middle;whiteSpace=wrap;rounded=0;" parent="1" vertex="1">
          <mxGeometry x="301" y="280" width="140" height="30" as="geometry" />
        </mxCell>
        <mxCell id="noPYV2ATX_tMjAQWTUhm-40" value="" style="endArrow=none;dashed=1;html=1;rounded=0;entryX=0.5;entryY=1;entryDx=0;entryDy=0;" parent="1" target="noPYV2ATX_tMjAQWTUhm-38" edge="1">
          <mxGeometry width="50" height="50" relative="1" as="geometry">
            <mxPoint x="235" y="295" as="sourcePoint" />
            <mxPoint x="550" y="500" as="targetPoint" />
          </mxGeometry>
        </mxCell>
        <mxCell id="noPYV2ATX_tMjAQWTUhm-45" value="" style="shape=partialRectangle;whiteSpace=wrap;html=1;bottom=1;right=1;left=1;top=0;fillColor=none;routingCenterX=-0.5;rotation=90;" parent="1" vertex="1">
          <mxGeometry x="281.25" y="364" width="30" height="10" as="geometry" />
        </mxCell>
        <mxCell id="noPYV2ATX_tMjAQWTUhm-46" value="mod - остаток от деления" style="text;html=1;align=left;verticalAlign=middle;whiteSpace=wrap;rounded=0;" parent="1" vertex="1">
          <mxGeometry x="302.25" y="354" width="147.75" height="30" as="geometry" />
        </mxCell>
        <mxCell id="noPYV2ATX_tMjAQWTUhm-47" value="" style="endArrow=none;dashed=1;html=1;rounded=0;entryX=0.5;entryY=1;entryDx=0;entryDy=0;" parent="1" target="noPYV2ATX_tMjAQWTUhm-45" edge="1">
          <mxGeometry width="50" height="50" relative="1" as="geometry">
            <mxPoint x="236.25" y="369" as="sourcePoint" />
            <mxPoint x="551.25" y="574" as="targetPoint" />
          </mxGeometry>
        </mxCell>
        <mxCell id="noPYV2ATX_tMjAQWTUhm-48" value="" style="shape=partialRectangle;whiteSpace=wrap;html=1;bottom=1;right=1;left=1;top=0;fillColor=none;routingCenterX=-0.5;rotation=90;" parent="1" vertex="1">
          <mxGeometry x="280" y="670" width="30" height="10" as="geometry" />
        </mxCell>
        <mxCell id="noPYV2ATX_tMjAQWTUhm-49" value="Вывод результата" style="text;html=1;align=center;verticalAlign=middle;whiteSpace=wrap;rounded=0;" parent="1" vertex="1">
          <mxGeometry x="300" y="660" width="120" height="30" as="geometry" />
        </mxCell>
        <mxCell id="noPYV2ATX_tMjAQWTUhm-50" value="" style="endArrow=none;dashed=1;html=1;rounded=0;entryX=0.5;entryY=1;entryDx=0;entryDy=0;" parent="1" target="noPYV2ATX_tMjAQWTUhm-48" edge="1">
          <mxGeometry width="50" height="50" relative="1" as="geometry">
            <mxPoint x="240" y="675" as="sourcePoint" />
            <mxPoint x="555" y="890" as="targetPoint" />
          </mxGeometry>
        </mxCell>
        <mxCell id="0FeuI0GiWgX9YWyVTWa6-1" value="ЗАДАЧА №59&lt;div&gt;Подсчитайте количество натуральных делителей заданного числа.&amp;nbsp;&lt;br&gt;&lt;/div&gt;" style="text;html=1;align=center;verticalAlign=middle;whiteSpace=wrap;rounded=0;" parent="1" vertex="1">
          <mxGeometry x="242" y="60" width="193.75" height="30" as="geometry" />
        </mxCell>
      </root>
    </mxGraphModel>
  </diagram>
</mxfile>
